<svg id="Layer_1" data-name="Layer 1" xmlns="http://www.w3.org/2000/svg" viewBox="0 0 122.88 115.23"><defs><style>.cls-1{fill:#212121;}.cls-1,.cls-2{fill-rule:evenodd;}.cls-2{fill:#f44336;}</style></defs><title>location</title><path class="cls-1" d="M25.32,75.31a3.59,3.59,0,1,1,0,7.18H18.58L9.7,108.07H112.93l-9.64-25.58H97.72a3.59,3.59,0,0,1,0-7.18h10.7l14.46,39.92H0L13.32,75.31Z"/><path class="cls-2" d="M79.06,83.64A70.16,70.16,0,0,1,63.78,96.28a2.15,2.15,0,0,1-2.45.08,86.21,86.21,0,0,1-21.25-19C32.34,67.69,27.46,56.92,25.8,46.55s-.11-20.63,5.12-28.86a35.35,35.35,0,0,1,7.91-8.76C46.21,3.05,54.64-.06,63,0A34.1,34.1,0,0,1,86,9.38a33.87,33.87,0,0,1,6.13,7.47c5.63,9.27,6.84,21.09,4.37,33.07a72.84,72.84,0,0,1-17.46,33.7v0ZM61.44,18.7A18.06,18.06,0,1,1,43.38,36.76,18.06,18.06,0,0,1,61.44,18.7Z"/></svg>